PathFileType	3	(X/Y/Z)	D:\minhoCalibration\240510\subject4_KPNP\preferred\preferred18.trc
DataRate	CameraRate	NumFrames	NumMarkers	Units	OrigDataRate	OrigDataStartFrame	OrigNumFrames
200.0	200.0	18	10	mm	200.0	290	95	
Frame#	Time	Left_Ankle_Outer1			Left_Ankle_Inner1			Left_Knee_Outer1			Left_Knee_Inner1			Left_Wrist1			Right_Wrist1			Right_Knee_Inner1			Right_Knee_Outer1			Right_Ankle_Inner1			Right_Ankle_Outer1			
		X1	Y1	Z1	X2	Y2	Z2	X3	Y3	Z3	X4	Y4	Z4	X5	Y5	Z5	X6	Y6	Z6	X7	Y7	Z7	X8	Y8	Z8	X9	Y9	Z9	X10	Y10	Z10	
290	1.44	-383.98373	1205.7948	266.15955	-430.52054	1114.9979	257.09113	-306.15927	1079.9266	755.96979	-358.52225	988.17065	729.01605	-423.12839	1226.5391	1130.7902	-465.60425	920.67017	1344.5031	-367.24481	553.1626	1086.9951	-354.21964	567.22577	1196.4788	-548.6684	114.55224	1176.3544	-529.12457	120.65271	1228.6904
291	1.445	-386.18262	1206.1884	264.73547	-435.33795	1113.2754	261.98587	-307.01566	1086.0673	753.06543	-363.65598	994.93225	727.86078	-427.46191	1227.6713	1128.446	-462.67935	920.87054	1342.0698	-367.16934	552.00177	1083.6458	-354.72104	566.33148	1192.9382	-548.70947	114.5452	1176.2821	-529.03845	120.85424	1228.3749
292	1.45	-395.83371	1203.4604	262.84772	-435.94608	1106.8069	261.66068	-303.67627	1089.7399	751.42303	-358.98151	998.7262	727.18738	-432.11887	1228.6692	1125.6396	-459.44064	921.08173	1339.0653	-367.18436	550.60931	1080.2439	-355.16867	565.54596	1188.8834	-548.6496	114.57115	1176.4513	-528.51123	121.08076	1228.4204
293	1.455	-409.33801	1197.5656	262.043	-434.49603	1095.9487	262.82364	-300.76505	1092.8732	750.38239	-349.59528	1002.0654	726.33936	-436.92087	1229.4341	1122.4841	-456.10669	921.22949	1335.41	-366.1521	549.4339	1076.2743	-355.21863	564.74811	1185.2	-548.44537	114.54692	1176.8641	-527.77667	121.57321	1228.6504
294	1.46	-424.06052	1190.0002	261.63501	-430.9577	1085.2471	261.87424	-299.26425	1095.8644	750.86401	-341.2153	1007.7142	727.34937	-442.27667	1229.9124	1119.3152	-452.72449	921.06409	1331.9857	-365.74734	548.46539	1072.408	-355.26535	563.99988	1180.8688	-548.05927	114.71227	1177.589	-526.68561	122.05968	1229.0891
295	1.465	-434.15259	1181.3242	260.85785	-430.43536	1076.4132	260.60614	-300.21494	1099.6455	752.76825	-334.68649	1014.5085	728.91064	-448.28503	1229.8777	1116.3195	-449.4722	920.50775	1328.4193	-365.65784	547.85303	1068.3842	-355.13193	563.48425	1176.4586	-547.5918	114.97974	1178.4816	-525.4436	122.67272	1229.6438
296	1.47	-440.99963	1172.6699	258.3927	-431.78583	1068.111	259.78592	-303.29813	1105.2922	755.16699	-329.73682	1021.1248	730.04486	-454.57761	1229.5226	1113.6343	-446.50137	919.81384	1324.7344	-366.34628	547.51587	1064.4055	-354.74493	563.21021	1171.968	-547.13831	115.00388	1179.4227	-524.01031	123.28989	1230.1393
297	1.475	-447.08582	1162.3225	254.8596	-434.66559	1057.3367	260.65598	-308.36182	1113.207	756.89282	-327.63733	1028.0804	730.73492	-460.78119	1228.8529	1111.2	-443.81729	918.88806	1321.2186	-366.95837	547.26154	1059.9086	-354.10541	563.14899	1167.6909	-546.62946	115.25546	1180.4277	-522.57434	123.9361	1230.674
298	1.48	-452.37866	1150.2726	251.67728	-436.0191	1046.1605	261.17789	-314.81189	1122.5981	757.37122	-326.76871	1034.7351	731.16614	-467.0419	1227.9196	1109.0657	-441.54108	917.90106	1317.6917	-368.4136	547.18787	1055.7244	-353.30902	563.09296	1163.1191	-546.31256	115.69765	1181.2694	-521.19928	124.56947	1231.1997
299	1.485	-457.26117	1136.6599	248.95392	-434.72919	1033.9856	260.37314	-323.95758	1131.3065	756.71967	-326.25702	1041.3438	731.70062	-472.75906	1227.1321	1107.1884	-439.6778	916.93597	1314.3413	-370.03745	547.12903	1051.5659	-352.27359	563.26233	1158.5259	-546.03839	115.85545	1182.0586	-519.99646	125.20232	1231.653
300	1.49	-462.22025	1122.4071	246.87636	-427.98026	1023.2891	259.61429	-333.96893	1138.9449	754.79828	-325.65396	1047.8081	732.09497	-478.68774	1226.3413	1105.5337	-438.02469	915.89825	1311.0862	-372.15103	547.16412	1047.8719	-351.09964	563.40454	1154.0974	-545.80359	116.27485	1182.957	-518.85681	125.84485	1231.9226
301	1.495	-467.03403	1106.6302	245.64748	-420.25885	1013.0054	258.76886	-346.41025	1144.798	751.78912	-325.60767	1053.8903	732.28815	-484.11057	1226.0385	1104.1281	-436.45471	914.89563	1307.9564	-373.85269	547.29694	1044.0958	-349.83075	563.37433	1149.7487	-545.61823	116.49149	1183.4757	-517.82385	126.38567	1232.0076
302	1.5	-471.03055	1089.8064	244.80286	-412.83832	1003.0302	258.06396	-359.7554	1148.3979	748.11487	-326.58682	1059.0946	732.28461	-489.37329	1225.9999	1102.9924	-434.78125	913.69843	1304.9648	-376.13513	547.125	1040.9294	-348.50168	563.29407	1145.5164	-545.43677	116.61333	1183.7422	-517.01373	126.88004	1231.8707
303	1.505	-473.77209	1072.5754	243.92464	-405.82291	993.42633	257.71271	-372.77286	1149.6172	744.68835	-328.64191	1063.6639	732.28223	-493.8483	1226.2809	1102.5109	-432.90732	912.3772	1302.1094	-377.78741	547.49231	1037.9009	-347.11819	563.2132	1141.6351	-545.49396	116.25025	1183.7263	-516.46967	127.23909	1231.6079
304	1.51	-475.54254	1055.624	243.14142	-399.96384	983.9873	257.78488	-385.08871	1149.1085	741.58344	-331.90137	1066.9519	732.28369	-498.71899	1226.4022	1102.2812	-430.68472	911.02423	1299.3894	-380.00269	547.48944	1035.5703	-346.05008	563.18854	1137.9203	-545.9422	116.00962	1183.8151	-516.24695	127.41582	1231.1157
305	1.515	-476.31827	1038.7797	242.39087	-395.08118	974.06482	258.45734	-396.1633	1147.6805	739.18018	-335.97235	1069.0404	732.14441	-503.05695	1226.0656	1102.3206	-428.16327	909.64148	1296.5697	-381.63065	547.29523	1033.2019	-345.13538	563.12268	1134.7535	-546.78717	115.71928	1183.7911	-516.42291	127.41455	1230.5824
306	1.52	-476.66623	1022.0718	241.92485	-391.35168	963.41846	259.45233	-406.35013	1145.303	736.71777	-340.72083	1069.7213	731.76868	-507.24524	1225.2466	1102.5509	-425.30908	908.41504	1293.5988	-383.69022	547.24115	1031.4047	-344.43344	563.00885	1132.0801	-547.42621	115.30175	1183.6759	-516.88428	127.26198	1230.0829
307	1.525	-476.64215	1004.89	242.02396	-388.87753	950.84851	261.02048	-415.01147	1141.7527	734.11658	-346.3468	1068.8049	731.08685	-511.52271	1224.1588	1102.7157	-422.41531	907.55011	1290.895	-385.67871	547.0271	1030.0651	-343.79718	562.75739	1130.2067	-548.46161	114.52522	1183.5576	-517.4455	126.88133	1229.7346
